<svg xmlns="http://www.w3.org/2000/svg" width="750" height="500"><path style="marker:none" color="#000" fill="#fff" overflow="visible" d="M0 0h500v500H0z"/><path style="marker:none" d="M150 90l-90 40v255l90-40 100 40V130z" color="#000" fill="#28353d" overflow="visible"/><path style="marker:none" d="M60 150l90-40v10l-90 40zM60 175l90-40v10l-90 40zM60 225l90-40v10l-90 40zM60 200l90-40v10l-90 40zM60 245l90-40v10l-90 40zM60 305l90-40v10l-90 40zM60 265l90-40v10l-90 40zM60 365l90-40v10l-90 40zM60 325l90-40v10l-90 40zM60 285l90-40v10l-90 40zM60 345l90-40v10l-90 40z" color="#000" fill="#fff" overflow="visible"/><path style="marker:none" color="#000" fill="#28353d" overflow="visible" d="M70 130h10v245H70zM90 120h10v245H90zM110 115h10v240h-10zM130 105h10v240h-10zM340 90l-90 40v255l90-40 100 40V130z"/><path style="marker:none" d="M250 150l90-40v10l-90 40zM250 175l90-40v10l-90 40zM250 225l90-40v10l-90 40zM250 200l90-40v10l-90 40zM250 245l90-40v10l-90 40zM250 305l90-40v10l-90 40zM250 265l90-40v10l-90 40zM250 365l90-40v10l-90 40zM250 325l90-40v10l-90 40zM250 285l90-40v10l-90 40zM250 345l90-40v10l-90 40z" color="#000" fill="#fff" overflow="visible"/><path style="marker:none" color="#000" fill="#28353d" overflow="visible" d="M260 130h10v245h-10zM280 120h10v245h-10zM300 115h10v240h-10zM320 105h10v240h-10z"/><g color="#000"><path d="M204.615 47.692s-33.846 0-33.846 33.846C170.77 132.308 205 160 205 160s33.462-27.692 33.462-78.462c0-33.846-33.847-33.846-33.847-33.846z" style="marker:none" fill="#fff" overflow="visible"/><path d="M204.615 56.154s-25.384 0-25.384 33.846 25.384 59.23 25.384 59.23S230 123.847 230 90s-25.385-33.846-25.385-33.846z" style="marker:none" fill="#28353d" overflow="visible"/></g><path style="marker:none" d="M60 395l90-40 100 40 90-40v20l-90 40-100-40-90 40z" color="#000" fill="#28353d" overflow="visible"/><g color="#000"><path d="M329.645 360l10.606-24.749 84.853-84.853 28.284 28.285-84.852 84.853-24.75 10.606z" style="marker:none" fill="#fff" overflow="visible"/><path d="M336.716 360l7.07-21.213L365 360l-21.213 7.071zM347.322 335.251l77.782-77.781 21.213 21.213-77.781 77.781z" style="marker:none" fill="#28353d" overflow="visible"/></g><path style="marker:none" color="#000" fill="#fff" overflow="visible" d="M500 0h250v250H500z"/><path style="marker:none" d="M640 115v80l59.738-26.208v-80S647.222 111.863 640 115z" color="#000" fill="#28353d" overflow="visible"/><path style="marker:none" d="M640 146.576l54.474-24.21v6.052L640 152.63zM640 122.366l54.474-24.21v6.052L640 128.418zM640 182.892l54.474-24.21v6.052L640 188.944zM640 158.682l54.474-24.21v6.052L640 164.734zM640 134.471l54.474-24.21v6.052L640 140.523zM640 170.787l54.474-24.21v6.052L640 176.839z" color="#000" fill="#fff" overflow="visible"/><path style="marker:none" color="#000" fill="#28353d" overflow="visible" d="M646.052 115h6.053v73.945h-6.053zM670.263 105h6.053v71.84h-6.053z"/><path style="marker:none" d="M525 205l55-25 60 25 39.738-16.208L640 220l-60-25-55 25z" color="#000" fill="#28353d" overflow="visible"/><path style="marker:none" d="M160 340l25 10v-50l-25-10z" color="#000" fill="#fff" overflow="visible"/><path style="marker:none" d="M580 65l-55 25v105l55-25 60 25v-80z" color="#000" fill="#28353d" overflow="visible"/><path style="marker:none" d="M525 98.155l54.474-24.21v6.052L525 104.208zM525 110.26l54.474-24.21v6.053L525 116.313zM525 146.576l54.474-24.21v6.052L525 152.63zM525 122.366l54.474-24.21v6.052L525 128.418zM525 182.892l54.474-24.21v6.052L525 188.944zM525 158.682l54.474-24.21v6.052L525 164.734zM525 134.471l54.474-24.21v6.052L525 140.523zM525 170.787l54.474-24.21v6.052L525 176.839z" color="#000" fill="#fff" overflow="visible"/><path style="marker:none" color="#000" fill="#28353d" overflow="visible" d="M531.052 90h6.053v98.945h-6.053zM555.263 80h6.053v96.84h-6.053z"/><path style="marker:none" d="M580 65l60 50 59.738-26.208-65-45z" color="#000" fill="#798993" overflow="visible"/><g color="#000"><path style="marker:none" d="M630.364 14.393s-20.485 0-20.485 20.486c0 30.728 20.718 47.49 20.718 47.49s20.253-16.762 20.253-47.49c0-20.486-20.486-20.486-20.486-20.486z" fill="#fff" overflow="visible"/><path style="marker:none" d="M630.364 19.514S615 19.514 615 40s15.364 35.85 15.364 35.85S645.73 60.486 645.73 40s-15.365-20.486-15.365-20.486z" fill="#28353d" overflow="visible"/></g><g color="#000"><path style="marker:none" d="M652.405 197.054l6.163-14.378 49.297-49.298 16.432 16.433L675 199.108l-14.378 6.162z" fill="#fff" overflow="visible"/><path style="marker:none" d="M656.514 197.054l4.108-12.324 12.324 12.324-12.324 4.108zM662.676 182.676l45.189-45.19 12.324 12.325L675 195z" fill="#28353d" overflow="visible"/></g></svg>